<svg id="svg" xmlns="http://www.w3.org/2000/svg" xmlns:xlink="http://www.w3.org/1999/xlink" width="400" height="400" viewBox="0, 0, 400,400"><g id="svgg"><path id="path0" d="M178.800 74.955 C 126.894 79.589,82.121 117.517,68.016 168.800 C 63.870 183.874,62.521 203.952,65.544 205.570 C 68.346 207.069,69.600 204.680,69.600 197.846 C 69.600 136.645,122.509 82.920,185.433 80.226 C 194.540 79.836,196.176 79.565,196.832 78.341 C 198.722 74.808,192.830 73.702,178.800 74.955 M209.661 77.926 C 207.370 80.687,208.899 81.728,218.788 84.131 C 229.592 86.758,231.490 86.775,231.849 84.254 C 232.164 82.041,230.927 81.399,222.400 79.345 C 211.313 76.674,210.752 76.611,209.661 77.926 M179.881 88.873 C 86.637 97.481,44.158 211.854,109.011 279.691 C 179.662 353.594,303.586 303.858,303.586 201.600 C 303.586 134.088,247.153 82.664,179.881 88.873 M241.956 90.539 C 241.440 92.164,243.142 94.400,244.896 94.400 C 246.534 94.400,247.970 91.839,247.170 90.344 C 246.019 88.193,242.661 88.318,241.956 90.539 M210.198 95.685 C 220.939 97.583,234.348 102.273,242.222 106.888 L 245.692 108.921 242.036 111.343 C 232.300 117.791,223.109 131.025,221.388 141.071 C 219.240 153.608,222.261 161.816,233.451 173.846 C 249.675 191.288,253.673 204.834,247.719 222.187 C 236.220 255.700,243.908 276.800,267.618 276.800 C 268.652 276.800,258.815 285.334,252.748 289.701 C 237.241 300.862,218.157 307.505,196.800 309.178 L 190.000 309.710 192.568 308.087 C 205.194 300.102,199.159 277.834,180.895 265.014 C 161.285 251.251,159.799 248.283,165.651 234.585 C 172.104 219.481,170.402 210.926,157.488 193.562 C 138.354 167.837,145.153 147.580,175.106 141.073 C 198.812 135.924,204.499 123.226,195.581 95.359 C 194.909 93.258,196.678 93.297,210.198 95.685 M256.533 97.333 C 254.965 98.902,256.667 101.078,263.578 106.342 C 316.915 146.961,326.215 224.538,284.057 277.155 C 279.843 282.414,282.986 287.013,287.361 281.990 C 323.720 240.243,325.699 172.417,291.880 127.108 C 279.679 110.762,259.827 94.039,256.533 97.333 M62.970 214.097 C 60.483 216.584,68.894 249.560,72.883 252.960 C 76.977 256.450,78.071 252.787,75.179 245.276 C 72.323 237.860,70.631 231.513,68.867 221.600 C 67.521 214.032,65.547 211.520,62.970 214.097 M97.622 219.145 C 108.010 230.210,109.821 247.646,101.632 257.760 L 100.186 259.545 98.466 256.772 C 91.272 245.181,82.083 216.938,85.102 215.696 C 89.323 213.959,93.950 215.234,97.622 219.145 M78.824 258.684 C 76.611 260.302,77.575 262.800,80.411 262.800 C 82.257 262.800,82.856 262.403,83.049 261.054 C 83.380 258.723,80.772 257.259,78.824 258.684 M89.800 275.730 C 84.973 277.678,101.271 295.560,119.060 307.837 C 134.763 318.673,158.083 327.207,177.200 329.115 C 179.400 329.335,183.632 329.756,186.605 330.051 C 192.585 330.645,194.400 329.885,194.400 326.788 C 194.400 324.408,193.115 324.000,185.614 324.000 C 155.113 324.000,119.909 306.990,98.277 281.800 C 92.815 275.440,91.987 274.847,89.800 275.730 M270.000 295.295 C 252.448 310.466,232.402 319.252,205.480 323.574 C 200.979 324.296,199.411 327.789,202.974 329.156 C 206.399 330.471,227.521 325.289,240.400 319.975 C 257.606 312.875,281.668 295.830,279.518 292.263 C 277.931 289.629,275.754 290.322,270.000 295.295 " stroke="none" fill="#000000" fill-rule="evenodd"></path></g></svg>